<?xml version="1.0" standalone="no"?>
<!DOCTYPE svg PUBLIC "-//W3C//DTD SVG 20010904//EN"
 "http://www.w3.org/TR/2001/REC-SVG-20010904/DTD/svg10.dtd">
<svg version="1.0" xmlns="http://www.w3.org/2000/svg"
 width="1156.000000pt" height="918.000000pt" viewBox="0 0 1156.000000 918.000000"
 preserveAspectRatio="xMidYMid meet">
<metadata>
Created by potrace 1.16, written by Peter Selinger 2001-2019
</metadata>
<g transform="translate(0.000000,918.000000) scale(0.100000,-0.100000)"
fill="#000000" stroke="none">
<path d="M0 4590 l0 -4590 5780 0 5780 0 0 4590 0 4590 -5780 0 -5780 0 0
-4590z m5504 2959 c24 -19 26 -26 26 -99 0 -88 1 -90 81 -90 l49 0 0 79 c0 74
2 81 26 100 35 28 76 26 111 -3 20 -17 34 -22 44 -15 8 5 56 9 107 9 80 0 99
-3 141 -26 48 -24 51 -25 76 -8 22 14 32 15 65 5 68 -20 69 -28 24 -261 -18
-98 -18 -127 4 -149 23 -24 43 -30 70 -20 26 10 61 80 62 124 1 50 48 237 62
246 22 14 78 10 147 -10 36 -11 86 -24 111 -31 99 -25 126 -33 142 -47 9 -8
39 -17 68 -19 63 -6 120 -34 159 -80 30 -34 31 -34 113 -34 66 0 90 -4 118
-21 39 -23 72 -55 88 -85 9 -18 18 -20 71 -16 65 5 130 -20 173 -65 13 -14 33
-23 52 -23 48 -1 81 -34 80 -81 -1 -22 -8 -47 -16 -57 -18 -21 -96 -161 -122
-219 -18 -41 -18 -42 3 -72 27 -38 70 -42 101 -9 12 13 48 72 82 133 34 60 64
112 68 115 3 3 9 13 13 23 9 24 77 23 109 -3 14 -11 77 -54 139 -96 63 -42
122 -83 132 -91 30 -27 22 -77 -23 -135 -44 -59 -49 -75 -22 -85 9 -4 26 -15
36 -25 28 -25 49 -22 68 10 34 56 76 92 107 92 38 0 81 -44 81 -82 0 -22 6
-29 28 -33 73 -15 175 -102 197 -168 8 -26 16 -33 42 -35 47 -5 186 -146 203
-207 38 -136 -38 -253 -176 -273 -43 -6 -48 -10 -60 -42 -7 -19 -13 -44 -13
-56 -1 -28 -45 -64 -79 -64 -33 0 -69 30 -78 66 -4 15 2 51 15 90 36 111 23
144 -33 85 -16 -16 -41 -35 -56 -41 -39 -16 -87 9 -98 52 -4 17 -14 35 -22 39
-8 3 -28 13 -44 20 -34 16 -123 103 -131 128 -3 9 -24 23 -47 31 -26 9 -48 25
-57 42 -14 24 -14 30 2 64 10 20 34 57 54 81 l36 43 -27 21 c-14 11 -33 27
-40 35 -21 20 -44 17 -51 -6 -3 -11 -10 -20 -14 -20 -5 0 -20 -18 -34 -39 -42
-63 -120 -65 -149 -4 -10 21 -23 29 -52 34 -22 4 -45 15 -53 25 -15 21 -17 80
-3 89 5 3 15 15 21 26 10 20 9 20 -20 5 -19 -10 -56 -16 -102 -16 -59 0 -80 5
-116 25 -23 14 -43 30 -43 35 0 5 -18 14 -39 20 -40 10 -81 50 -81 76 0 8 10
35 21 59 12 25 20 47 18 48 -35 22 -90 47 -102 47 -8 0 -20 -14 -27 -31 -28
-66 -72 -84 -130 -54 -55 29 -52 70 15 212 64 133 71 164 50 197 -14 21 -25
26 -55 26 -31 0 -43 -6 -59 -29 -12 -16 -21 -34 -21 -41 0 -6 -9 -30 -20 -52
-11 -23 -20 -49 -20 -57 -1 -9 -9 -34 -20 -56 -11 -22 -19 -44 -20 -49 0 -6
-10 -20 -22 -33 -28 -30 -74 -29 -112 1 -26 21 -28 28 -22 67 14 95 15 92 -28
101 -22 5 -46 14 -53 20 -18 14 -28 1 -44 -55 -16 -60 -89 -77 -135 -32 -20
20 -28 23 -47 14 -18 -8 -33 -7 -60 5 -42 17 -55 49 -38 98 l11 32 -22 -21
c-95 -87 -239 -83 -330 7 -28 28 -28 28 -61 12 -44 -23 -210 -24 -251 -1 -26
14 -32 14 -58 1 -39 -19 -88 -6 -105 28 -7 14 -13 60 -13 103 l0 77 -59 0 -58
0 -5 -80 c-4 -66 -9 -84 -28 -105 -27 -29 -74 -33 -107 -10 -18 12 -22 13 -26
1 -8 -20 -58 -29 -91 -16 -19 7 -33 7 -47 -1 -12 -6 -73 -12 -137 -13 -64 -1
-130 -8 -145 -14 -16 -7 -54 -15 -85 -18 -60 -6 -150 -23 -292 -54 -47 -11
-96 -21 -110 -23 -53 -10 -157 -39 -202 -58 -26 -10 -64 -19 -84 -19 -24 0
-46 -7 -60 -21 -12 -11 -40 -23 -62 -26 -35 -5 -44 -2 -67 22 -14 16 -28 40
-31 54 -3 14 -10 35 -15 46 -5 11 -25 61 -43 110 -41 110 -68 133 -113 99 -41
-31 -35 -84 22 -209 31 -66 55 -137 55 -159 0 -36 -56 -79 -93 -72 -23 5 -37
-1 -75 -33 -48 -40 -116 -70 -162 -71 -17 -1 -31 -11 -45 -33 -12 -18 -33 -35
-52 -40 -28 -8 -43 -4 -114 32 -76 38 -109 49 -109 35 0 -3 12 -21 26 -40 16
-20 29 -52 31 -77 5 -39 2 -46 -22 -65 -60 -47 -110 -23 -169 81 l-27 47 -44
-30 c-24 -17 -46 -34 -49 -38 -2 -4 7 -23 21 -41 34 -43 63 -100 63 -123 0
-30 -127 -138 -200 -170 -36 -16 -51 -29 -64 -58 -28 -64 -85 -65 -144 -3
l-33 34 -47 -42 c-26 -24 -48 -46 -50 -49 -1 -3 11 -19 28 -35 24 -23 30 -37
30 -69 0 -54 -22 -76 -76 -76 -40 0 -46 4 -101 66 -32 37 -84 93 -115 126 -61
63 -78 102 -78 178 0 73 17 115 65 163 47 46 97 67 159 67 29 0 36 4 36 19 0
38 39 107 86 154 26 26 54 47 61 47 7 0 32 18 54 40 31 30 50 40 73 40 35 0
52 -15 100 -87 16 -24 31 -43 34 -43 16 0 91 58 92 70 0 9 -14 32 -31 53 -36
43 -48 102 -27 130 15 20 95 68 186 113 39 19 64 25 104 23 51 -3 52 -3 79 41
32 52 56 72 126 106 45 22 65 25 134 23 l82 -2 18 34 c26 51 68 84 129 104 30
9 74 26 97 37 29 14 54 19 77 15 25 -4 39 0 55 14 27 25 98 55 158 67 26 6 63
16 81 23 28 12 37 11 59 -1 27 -16 43 -62 95 -270 24 -93 25 -95 54 -95 23 0
29 4 27 20 -8 65 -25 157 -38 205 -31 113 -14 200 38 200 10 0 46 7 78 15 125
33 207 42 239 29 26 -11 30 -19 31 -51 0 -21 10 -105 22 -188 20 -136 24 -150
42 -150 28 0 31 52 10 195 -22 149 -22 186 0 210 34 38 135 20 135 -23 0 -7 6
-55 14 -107 8 -52 18 -126 21 -165 7 -65 16 -84 39 -85 8 0 3 172 -10 315 -9
104 -2 108 180 116 77 3 160 6 182 7 29 1 49 -4 68 -19z m466 -1115 c49 -36
90 -70 90 -75 0 -5 5 -9 12 -9 6 0 18 -7 27 -15 9 -9 45 -41 81 -73 55 -49
224 -217 264 -262 27 -32 102 -137 119 -169 29 -53 21 -58 -80 -53 -96 5 -109
12 -137 73 -20 43 -24 50 -124 189 -46 63 -90 119 -98 123 -8 4 -14 15 -14 22
0 8 -4 15 -8 15 -5 0 -31 28 -59 63 -28 34 -81 93 -117 131 -63 65 -74 84 -59
99 9 10 5 12 103 -59z m-190 -245 c64 -19 130 -78 164 -144 30 -58 31 -64 31
-200 0 -138 -7 -193 -55 -415 -10 -47 -21 -106 -24 -132 -5 -45 -5 -47 25 -53
17 -4 46 -4 64 -1 32 6 34 10 40 54 25 190 131 350 269 405 79 32 197 37 286
12 30 -9 69 -19 85 -24 78 -21 277 -133 390 -221 17 -14 44 -34 59 -45 16 -11
34 -25 40 -32 7 -6 41 -34 75 -63 100 -83 241 -221 241 -236 0 -31 -42 -15
-123 47 -29 21 -57 39 -63 39 -6 0 -17 7 -24 15 -7 8 -26 22 -44 31 -44 23
-74 41 -126 74 -104 66 -354 180 -427 195 l-33 7 0 -79 c0 -66 -5 -88 -30
-141 -36 -77 -116 -159 -195 -198 -55 -28 -56 -29 -50 -64 4 -19 9 -38 12 -42
5 -10 44 -1 98 22 22 9 56 22 75 29 257 87 339 112 415 126 84 16 95 16 160 1
85 -20 134 -51 175 -111 94 -137 86 -354 -31 -810 -92 -361 -122 -438 -205
-521 -85 -85 -188 -107 -307 -66 -32 11 -56 17 -54 13 48 -88 59 -129 54 -196
-3 -42 -13 -86 -25 -110 -24 -46 -103 -135 -120 -135 -7 0 -12 -4 -12 -10 0
-9 -18 -20 -134 -82 -64 -34 -385 -188 -392 -188 -3 0 -24 -8 -47 -19 -148
-66 -351 -121 -447 -121 -57 0 -152 31 -195 65 -69 52 -115 172 -115 300 0 80
22 261 50 415 27 144 27 170 -4 170 -29 0 -41 -15 -51 -60 -12 -57 -62 -146
-108 -193 -51 -53 -102 -81 -190 -103 l-66 -16 20 -41 c67 -131 272 -381 496
-605 61 -61 78 -92 49 -92 -8 0 -34 15 -58 33 -24 18 -67 48 -95 67 -29 18
-53 37 -53 42 0 4 -5 8 -11 8 -18 0 -209 159 -300 249 -47 48 -107 113 -133
146 -25 33 -53 67 -60 75 -8 8 -32 51 -55 94 -86 165 -93 324 -19 444 27 44
101 122 115 122 6 0 16 7 23 15 7 8 24 21 39 28 14 7 35 18 46 24 11 6 43 19
70 30 28 10 50 24 49 31 -1 7 -2 32 -2 57 -3 70 -9 70 -177 -5 -519 -231 -737
-212 -818 74 -37 134 -14 379 74 781 56 254 92 350 156 424 47 54 133 101 197
108 l41 5 -3 58 c-8 131 95 261 273 344 57 27 76 35 190 87 28 12 67 31 88 41
22 10 44 18 50 18 7 1 30 9 52 20 22 11 46 19 52 20 7 0 32 9 55 19 46 20 135
49 238 76 36 10 70 19 75 20 27 9 192 4 225 -6z m-2660 -1909 c31 -17 41 -46
56 -164 23 -180 -6 -293 -100 -388 -59 -59 -67 -65 -132 -89 -207 -78 -435 61
-492 301 -6 25 -14 84 -18 131 -9 115 -6 117 156 146 427 74 494 82 530 63z
m5324 -30 c307 -49 320 -52 343 -79 28 -31 29 -77 4 -110 -17 -22 -23 -23
-107 -19 l-90 4 -22 -135 c-24 -148 -24 -151 36 -151 46 0 97 -24 117 -54 22
-33 14 -81 -17 -107 -33 -29 -64 -26 -383 33 -159 29 -231 81 -284 207 -54
127 4 296 127 373 74 46 155 58 276 38z m-4614 -304 c48 -41 531 -296 561
-296 5 0 26 -8 47 -19 20 -10 54 -21 75 -25 26 -5 41 -14 46 -29 10 -27 32
-111 39 -151 5 -29 4 -29 -34 -21 -56 10 -199 74 -244 110 -8 6 -26 17 -40 23
-14 7 -37 20 -52 30 -56 36 -153 105 -158 112 -3 3 -41 35 -85 70 -71 56 -184
152 -222 188 -33 32 30 39 67 8z m4427 -566 c317 -160 337 -176 302 -254 -17
-37 -57 -50 -110 -35 -24 7 -51 18 -59 24 -36 27 -131 68 -139 59 -15 -15
-111 -206 -111 -218 1 -6 46 -33 100 -60 55 -27 106 -59 115 -72 25 -39 19
-79 -17 -109 -41 -35 -62 -31 -203 41 -60 31 -175 89 -255 129 -172 86 -189
98 -197 147 -5 32 -1 41 25 68 17 16 41 30 54 30 13 -1 66 -22 119 -48 l97
-48 43 86 c23 47 51 97 61 111 22 33 20 35 -90 89 -88 44 -112 68 -112 115 1
44 39 84 82 85 9 0 142 -63 295 -140z m-4940 115 c12 -9 25 -30 28 -48 11 -57
-7 -81 -87 -122 -92 -46 -115 -65 -133 -109 -20 -48 -19 -85 5 -124 50 -81
125 -92 236 -32 72 39 134 51 159 32 18 -13 35 -51 35 -80 0 -40 -27 -64 -124
-112 -138 -68 -267 -66 -362 6 -24 19 -48 34 -52 34 -4 0 -37 -16 -72 -35
-109 -59 -180 -39 -180 51 0 48 18 66 110 113 l55 28 2 59 c4 91 31 160 83
213 56 57 86 81 103 81 7 0 17 4 23 10 20 20 90 49 119 50 17 0 40 -7 52 -15z
m504 -782 c118 -121 138 -152 146 -228 12 -119 -42 -211 -155 -263 -45 -20
-64 -24 -111 -19 -75 7 -122 34 -202 113 l-67 66 -61 -61 c-71 -71 -100 -82
-148 -56 -61 33 -57 90 12 157 25 24 125 123 223 220 228 228 212 225 363 71z
m3834 48 c59 -21 114 -58 114 -78 1 -7 5 -13 10 -13 10 0 25 -37 41 -99 9 -33
9 -60 0 -107 -11 -56 -19 -69 -86 -145 l-74 -83 59 -61 c66 -67 79 -101 56
-145 -17 -33 -65 -48 -105 -31 -14 5 -123 106 -243 223 -269 263 -262 243
-129 381 106 112 126 128 177 149 82 34 105 35 180 9z m-591 -417 c9 -3 16
-12 16 -20 0 -8 4 -14 8 -14 4 0 28 -39 52 -86 71 -143 67 -265 -12 -367 l-30
-39 21 -36 c11 -21 30 -57 42 -82 19 -41 20 -48 7 -84 -16 -44 -48 -60 -99
-49 -35 7 -45 19 -85 97 l-31 61 -79 6 c-102 8 -166 37 -225 102 -59 63 -119
176 -119 222 0 61 62 100 117 73 18 -8 45 -42 74 -91 59 -99 72 -113 120 -125
81 -21 151 23 171 107 9 42 8 52 -12 91 -12 25 -33 66 -46 92 -30 59 -30 95
-2 125 21 23 75 31 112 17z m-2540 -148 c107 -52 174 -131 201 -235 49 -188
-32 -366 -202 -447 -51 -24 -70 -27 -158 -27 -92 0 -105 2 -160 30 -173 88
-257 288 -194 460 42 112 104 178 212 225 54 24 73 27 152 25 76 -2 99 -6 149
-31z m1709 -226 c172 -53 232 -255 118 -398 l-30 -39 53 -59 c56 -63 69 -94
60 -141 -8 -39 -54 -67 -94 -58 -17 4 -30 11 -30 16 0 5 -6 9 -13 9 -7 0 -22
12 -34 28 -11 15 -42 51 -69 81 l-48 53 -50 -6 c-27 -3 -50 -7 -52 -8 -2 -2 1
-21 6 -43 5 -22 10 -70 10 -107 0 -67 0 -67 -35 -84 -36 -17 -67 -14 -98 8
-19 14 -44 118 -87 358 -12 69 -28 153 -36 187 -17 75 -17 95 -3 127 15 32 67
52 166 66 43 5 94 14 113 19 55 14 83 12 153 -9z m-767 -37 c57 -19 129 -65
138 -88 12 -31 6 -73 -13 -96 -25 -31 -96 -32 -135 -1 -33 26 -111 37 -163 23
-45 -12 -109 -71 -129 -118 -31 -72 -6 -174 54 -225 17 -14 52 -34 78 -44 40
-15 52 -16 88 -5 22 7 59 15 82 18 36 4 44 1 63 -22 13 -17 21 -42 21 -66 0
-32 -6 -42 -37 -66 -35 -27 -40 -28 -157 -28 -108 0 -126 3 -171 24 -116 57
-201 183 -212 316 -11 130 68 281 180 343 98 53 219 67 313 35z"/>
<path d="M5871 7342 c-63 -60 -66 -113 -12 -175 27 -30 34 -32 94 -32 58 0 66
2 90 30 75 86 17 215 -97 215 -27 0 -44 -9 -75 -38z"/>
<path d="M4612 7319 c-40 -8 -46 -14 -39 -33 5 -12 13 -12 46 -4 23 6 41 13
41 17 -1 19 -18 27 -48 20z"/>
<path d="M4118 7192 c-76 -35 -89 -75 -56 -164 27 -71 107 -102 157 -60 l21
17 -27 105 c-23 93 -35 120 -53 120 -3 0 -22 -8 -42 -18z"/>
<path d="M6871 7154 c-54 -45 -39 -73 48 -93 39 -9 43 -8 51 15 13 33 -3 70
-39 88 -28 15 -31 15 -60 -10z"/>
<path d="M4640 7121 c-18 -5 -25 -14 -25 -31 0 -14 6 -25 13 -24 6 1 21 2 32
3 15 1 20 8 20 31 0 32 -1 32 -40 21z"/>
<path d="M3440 6923 c-47 -32 -59 -56 -59 -108 0 -73 50 -125 119 -125 120 0
172 146 79 225 -37 30 -102 34 -139 8z"/>
<path d="M7432 6917 c-12 -13 -22 -30 -22 -38 0 -14 39 -39 92 -58 25 -9 28
-8 38 24 24 74 -56 127 -108 72z"/>
<path d="M3123 6753 c-38 -19 -40 -29 -13 -63 l19 -25 38 21 c41 24 52 46 33
69 -16 19 -36 18 -77 -2z"/>
<path d="M2674 6443 c-35 -17 -74 -78 -74 -116 0 -41 58 -104 109 -119 29 -9
96 17 116 44 12 18 11 25 -12 62 -14 22 -30 43 -34 44 -5 2 -9 9 -9 15 -1 7
-15 28 -33 49 -32 36 -32 36 -63 21z"/>
<path d="M8410 6217 c-51 -47 -64 -101 -36 -155 26 -51 53 -66 113 -66 52 0
58 2 88 37 18 21 35 49 37 62 7 35 -15 90 -48 119 -40 35 -117 36 -154 3z"/>
<path d="M2371 6191 c-33 -33 -23 -111 14 -111 19 0 95 68 95 85 0 18 -22 34
-57 41 -24 5 -36 1 -52 -15z"/>
<path d="M8765 5965 l-29 -28 37 -34 c31 -28 41 -32 57 -23 28 15 25 44 -8 81
l-27 31 -30 -27z"/>
<path d="M5605 5890 c-43 -9 -144 -41 -197 -64 -18 -8 -58 -24 -88 -36 -55
-23 -73 -31 -210 -93 -41 -19 -108 -49 -148 -66 -40 -18 -89 -41 -108 -53
l-37 -21 34 -29 c19 -15 45 -34 59 -41 29 -16 54 -28 95 -50 35 -18 283 -99
370 -121 115 -28 285 -59 292 -52 13 12 32 288 32 464 l1 172 -27 -1 c-16 -1
-46 -5 -68 -9z"/>
<path d="M6375 5498 c-27 -15 -43 -36 -62 -78 -20 -45 -43 -130 -35 -130 4 0
30 13 58 30 59 33 94 91 94 153 0 40 -16 47 -55 25z"/>
<path d="M4461 5083 c-20 -66 -47 -180 -90 -373 -47 -217 -61 -305 -61 -395 0
-84 2 -95 18 -95 29 0 162 28 267 56 55 14 116 30 135 34 19 4 53 14 75 23 22
8 59 18 83 22 36 6 42 10 42 31 0 14 -9 44 -20 66 -11 23 -20 47 -20 53 0 25
-174 360 -233 448 -56 82 -155 197 -171 197 -3 0 -14 -30 -25 -67z"/>
<path d="M4920 5125 c0 -2 6 -10 13 -17 21 -21 99 -165 149 -276 l46 -104 32
31 c36 33 34 43 -17 84 -35 29 -28 54 32 114 48 46 61 54 88 51 47 -4 45 -29
-7 -80 l-46 -44 40 -37 c22 -20 40 -44 40 -53 0 -10 -29 -46 -65 -82 -70 -69
-71 -71 -40 -149 7 -17 18 -56 25 -87 6 -31 15 -56 19 -56 14 0 81 84 81 102
0 18 45 58 65 58 23 0 65 -41 65 -64 0 -27 -27 -61 -56 -70 -11 -3 -37 -24
-58 -45 l-39 -40 39 -16 c31 -13 43 -14 61 -4 13 7 23 16 23 20 0 5 20 27 45
51 l45 43 0 148 c0 87 -4 147 -10 147 -20 0 -60 56 -60 83 0 37 27 82 57 96
39 18 69 13 102 -18 38 -36 43 -93 10 -135 -19 -24 -21 -41 -22 -193 l-2 -168
-68 -67 c-69 -68 -71 -73 -40 -110 14 -15 23 -9 101 74 48 49 111 115 140 145
28 30 52 62 52 72 0 9 7 27 16 39 38 55 126 0 103 -66 -7 -20 -19 -32 -37 -37
-26 -6 -143 -121 -265 -258 -44 -50 -51 -64 -48 -93 3 -39 -9 -43 -55 -19 -37
19 -41 13 -17 -27 25 -43 48 -47 67 -11 8 15 65 80 126 143 61 63 144 150 183
193 39 42 77 77 85 77 7 0 29 -18 49 -40 l37 -40 78 82 c87 93 85 84 51 225
-17 69 -23 77 -70 90 -50 13 -137 81 -172 135 -20 30 -39 48 -51 48 -11 0 -20
-5 -20 -12 0 -21 65 -97 103 -120 21 -13 44 -28 50 -34 7 -6 29 -14 50 -18 29
-5 37 -12 37 -28 0 -19 -4 -20 -62 -14 -107 13 -210 91 -254 192 -12 29 -18
32 -75 38 -34 3 -83 6 -109 6 -83 0 -365 60 -537 115 -57 18 -103 31 -103 30z"/>
<path d="M6044 4965 c25 -19 46 -19 46 0 0 10 -10 15 -32 15 -31 -1 -32 -1
-14 -15z"/>
<path d="M5508 4879 c-22 -13 -23 -52 -2 -70 17 -14 40 -5 58 24 8 12 5 21 -8
36 -22 24 -24 24 -48 10z"/>
<path d="M6930 4874 c-40 -6 -219 -44 -300 -64 -41 -10 -104 -24 -140 -32
l-65 -14 3 -34 c2 -19 12 -55 21 -80 10 -25 24 -61 31 -80 30 -85 41 -112 75
-183 19 -42 35 -80 35 -86 0 -5 6 -16 14 -24 8 -8 22 -29 30 -48 30 -64 82
-140 141 -206 l59 -66 23 49 c12 27 22 58 22 68 1 11 10 47 20 80 94 302 166
654 145 709 -6 17 -46 20 -114 11z"/>
<path d="M6103 4385 c-46 -47 -89 -85 -97 -85 -8 0 -28 14 -44 30 -17 17 -35
30 -41 30 -6 0 -30 -21 -55 -47 -25 -27 -94 -100 -155 -163 -60 -63 -109 -115
-108 -116 1 -1 25 -4 54 -7 l52 -6 50 52 c88 92 101 110 101 132 0 34 53 54
89 34 36 -20 42 -80 9 -103 -12 -9 -28 -16 -35 -16 -6 0 -35 -23 -63 -52 -56
-57 -54 -66 20 -67 92 -2 411 -88 525 -142 22 -10 45 -19 50 -19 6 0 21 -9 35
-20 14 -11 31 -20 38 -20 13 0 10 5 -28 48 -21 23 -65 84 -74 102 -4 8 -18 33
-31 55 -13 22 -38 69 -56 105 -57 117 -64 130 -66 130 -1 0 -20 -19 -42 -42
-28 -30 -41 -52 -41 -72 0 -47 -44 -86 -96 -86 -35 0 -47 5 -68 31 -34 40 -34
88 -2 126 20 24 32 28 76 29 48 0 53 3 95 51 40 45 43 53 36 84 -8 35 -38 109
-43 109 -2 0 -40 -39 -85 -85z"/>
<path d="M5250 4286 c0 -16 21 -56 29 -56 10 0 36 39 29 44 -7 6 -58 16 -58
12z"/>
<path d="M5371 4206 c-15 -17 -4 -44 20 -51 10 -4 19 -12 20 -18 0 -7 4 -2 10
11 16 40 -26 88 -50 58z"/>
<path d="M6078 4169 c-22 -13 -23 -52 -2 -70 17 -14 40 -5 58 24 8 12 5 21 -8
36 -22 24 -24 24 -48 10z"/>
<path d="M4950 3744 c-60 -32 -110 -89 -110 -126 0 -33 19 -36 80 -12 43 17
77 62 96 126 10 33 10 38 -5 37 -9 0 -36 -11 -61 -25z"/>
<path d="M5542 3422 l3 -317 23 -3 c24 -4 123 26 199 59 24 11 45 19 48 19 6
0 225 103 258 120 18 10 45 24 75 38 31 16 57 29 82 42 14 8 54 29 90 48 103
53 103 54 29 101 -35 23 -71 41 -79 41 -9 0 -24 6 -35 13 -11 7 -60 26 -110
41 -49 16 -110 35 -135 43 -69 21 -286 60 -373 67 l-77 6 2 -318z"/>
<path d="M2890 4093 c-206 -34 -273 -48 -277 -60 -9 -23 37 -138 68 -171 50
-54 76 -66 142 -66 74 -1 113 22 158 92 26 42 29 54 29 134 0 101 13 93 -120
71z"/>
<path d="M8299 4082 c-37 -10 -72 -42 -92 -84 -22 -46 -21 -60 2 -106 32 -62
78 -92 140 -92 l41 0 0 48 c1 26 9 87 20 137 10 49 18 91 17 91 -8 7 -107 11
-128 6z"/>
<path d="M3625 2577 c-70 -72 -70 -73 -40 -113 37 -48 102 -94 135 -94 15 0
39 11 55 26 24 22 27 31 22 66 -4 33 -17 52 -63 99 -32 33 -61 59 -64 58 -3 0
-23 -19 -45 -42z"/>
<path d="M7550 2598 c-14 -5 -51 -34 -83 -66 l-57 -56 61 -62 61 -62 59 62
c32 33 61 73 64 88 14 59 -49 117 -105 96z"/>
<path d="M4313 2047 c-44 -13 -105 -64 -129 -109 -29 -56 -13 -162 33 -215 34
-39 121 -76 164 -70 55 7 120 49 153 96 24 35 28 50 28 107 0 52 -5 74 -21 95
-12 16 -21 32 -21 36 -1 22 -110 74 -149 72 -9 -1 -35 -6 -58 -12z"/>
<path d="M6028 1798 c-39 -8 -48 -14 -48 -32 1 -22 26 -135 32 -142 2 -2 40 4
84 13 101 19 136 45 136 98 0 70 -69 91 -204 63z"/>
</g>
</svg>
