<?xml version="1.0" standalone="no"?>
<!DOCTYPE svg PUBLIC "-//W3C//DTD SVG 20010904//EN"
 "http://www.w3.org/TR/2001/REC-SVG-20010904/DTD/svg10.dtd">
<svg version="1.0" xmlns="http://www.w3.org/2000/svg"
 width="1280.000000pt" height="1023.000000pt" viewBox="0 0 1280.000000 1023.000000"
 preserveAspectRatio="xMidYMid meet">
<metadata>
Created by potrace 1.16, written by Peter Selinger 2001-2019
</metadata>
<g transform="translate(0.000000,1023.000000) scale(0.100000,-0.100000)"
fill="#000000" stroke="none">
<path d="M0 5115 l0 -5115 6400 0 6400 0 0 5115 0 5115 -6400 0 -6400 0 0
-5115z m6742 3127 c141 -104 341 -278 453 -393 107 -110 220 -247 239 -289 6
-14 17 -31 24 -39 21 -22 10 -46 -21 -45 -15 0 -61 1 -102 2 l-75 2 -28 46
c-72 123 -175 271 -234 337 -21 23 -38 45 -38 48 0 4 -17 24 -37 46 -69 72
-237 262 -245 278 -10 17 -2 35 15 35 7 -1 29 -13 49 -28z m-102 -338 c63 -34
105 -81 138 -153 24 -51 25 -66 24 -196 0 -148 -5 -181 -52 -410 -16 -77 -31
-166 -35 -197 l-6 -58 69 0 69 0 21 103 c20 100 49 176 94 248 24 37 119 129
133 129 5 0 28 9 51 21 67 32 165 45 243 31 143 -25 283 -80 434 -172 76 -46
337 -238 337 -248 0 -4 13 -15 28 -24 41 -24 264 -248 259 -261 -7 -22 -24
-17 -87 26 -36 24 -87 56 -115 72 -27 16 -66 41 -85 57 -19 15 -38 28 -43 28
-4 0 -35 18 -68 40 -33 22 -66 40 -73 40 -7 0 -25 9 -38 20 -14 11 -68 39
-119 63 -137 64 -157 72 -229 94 l-66 20 -1 -91 c-2 -103 -15 -143 -73 -220
-50 -68 -91 -104 -170 -151 -36 -21 -66 -39 -67 -39 -2 -2 19 -89 22 -94 2 -2
42 14 91 34 49 20 109 42 134 49 25 7 83 26 130 43 120 42 287 89 339 95 118
14 261 -44 316 -127 58 -89 67 -121 72 -251 5 -126 -10 -245 -57 -455 -53
-235 -134 -538 -151 -570 -5 -8 -19 -40 -32 -70 -53 -123 -172 -211 -297 -218
-62 -4 -86 2 -181 42 -11 5 -5 -14 20 -65 48 -97 49 -175 4 -269 -57 -118
-122 -170 -363 -292 -207 -104 -341 -168 -352 -168 -4 0 -35 -13 -70 -30 -87
-41 -298 -108 -383 -121 -38 -6 -98 -9 -132 -6 -59 6 -163 42 -163 56 0 4 -13
14 -29 24 -18 11 -42 44 -67 94 -38 75 -39 81 -43 200 -3 126 6 222 39 403 10
58 22 140 26 183 l6 78 -33 -3 c-32 -3 -34 -6 -55 -73 -31 -106 -100 -203
-174 -250 -52 -33 -164 -75 -199 -75 l-30 0 47 -77 c100 -165 238 -335 440
-543 96 -98 89 -91 125 -124 28 -26 37 -66 13 -66 -8 0 -42 20 -77 45 -35 25
-73 49 -84 55 -11 5 -38 25 -60 44 -22 20 -43 36 -47 36 -4 0 -15 8 -25 18
-10 10 -51 45 -92 77 -119 95 -235 210 -319 313 -86 107 -84 105 -128 188 -96
181 -106 331 -33 476 33 66 116 152 180 187 102 55 142 73 174 78 31 5 35 9
35 35 0 40 -20 118 -31 118 -7 0 -49 -17 -254 -105 -44 -19 -100 -41 -125 -49
-25 -8 -76 -26 -115 -40 -135 -50 -329 -59 -412 -19 -53 25 -106 81 -138 147
-75 154 -45 537 81 1041 19 77 40 159 45 181 14 60 86 173 141 223 51 46 115
71 182 71 l41 0 1 88 c0 76 4 94 28 141 30 57 117 151 140 151 7 0 20 7 27 16
12 14 270 144 286 144 3 0 36 14 72 31 36 18 96 42 132 54 36 12 74 28 85 34
36 21 329 112 389 121 33 5 106 7 162 6 88 -3 108 -7 153 -32z m-2221 -2430
c18 -9 56 -32 84 -50 28 -19 55 -34 60 -34 5 0 32 -15 60 -34 118 -77 565
-286 613 -286 7 0 16 -10 18 -22 2 -13 12 -59 20 -102 18 -86 13 -102 -28 -86
-60 24 -192 82 -201 89 -5 5 -41 26 -80 46 -38 21 -82 47 -97 59 -14 12 -59
44 -99 71 -73 51 -135 98 -199 154 -19 17 -74 65 -122 107 -83 72 -106 104
-75 104 8 0 29 -7 46 -16z m-966 -1875 c48 -25 57 -47 57 -158 0 -83 4 -113
20 -145 38 -80 140 -105 217 -54 58 38 75 82 82 215 7 127 14 141 78 150 32 4
45 1 69 -20 l29 -25 -1 -149 c-1 -162 -3 -173 -70 -260 -36 -47 -87 -87 -141
-110 l-33 -13 0 -99 c0 -84 -3 -102 -21 -125 -17 -22 -29 -26 -68 -26 -38 0
-52 5 -72 26 -21 23 -24 36 -27 123 l-4 98 -44 22 c-66 31 -138 104 -170 169
-26 52 -28 68 -32 194 l-4 138 30 30 c32 32 67 38 105 19z m4004 -21 l33 -32
0 -103 c0 -134 20 -182 91 -213 60 -25 70 -25 129 2 71 32 89 74 92 211 l3
109 34 30 c28 25 39 29 69 24 20 -3 47 -17 61 -31 25 -25 26 -29 24 -154 -2
-139 -9 -165 -65 -253 -32 -49 -103 -105 -160 -127 -28 -11 -28 -11 -28 -111
0 -94 -2 -103 -25 -125 -24 -25 -81 -34 -120 -19 -31 12 -45 59 -45 152 l0 90
-54 26 c-71 35 -146 117 -174 191 -18 48 -22 77 -22 184 0 119 1 129 23 148
47 43 90 43 134 1z m1528 1 l35 -31 0 -124 0 -125 143 3 142 3 5 128 c5 129 5
129 35 153 46 36 96 29 137 -20 16 -19 17 -52 18 -369 0 -418 0 -417 -101
-417 -30 0 -46 6 -64 26 -23 25 -25 34 -27 161 l-3 134 -142 2 -142 2 -3 -137
c-3 -129 -4 -138 -28 -163 -21 -22 -31 -25 -74 -23 -40 2 -53 8 -70 31 -21 28
-21 36 -18 385 l3 357 32 28 c41 36 77 35 122 -4z m-6075 -2 c101 -27 175 -78
238 -163 51 -68 66 -136 60 -260 -4 -75 -10 -100 -33 -142 -41 -75 -110 -140
-189 -178 -94 -45 -157 -56 -297 -52 -118 3 -121 4 -145 31 l-24 28 0 350 0
351 29 29 c29 29 30 29 153 29 97 0 141 -5 208 -23z m1670 -4 c68 -32 128 -99
145 -164 40 -148 -11 -275 -136 -344 -49 -26 -65 -29 -171 -33 l-118 -4 0 -98
c0 -83 -3 -101 -21 -124 -17 -22 -28 -26 -70 -26 -53 0 -84 20 -94 62 -3 13
-5 178 -3 366 l3 344 30 24 c30 25 31 25 210 21 156 -3 186 -6 225 -24z m844
-3 c33 -12 70 -33 82 -46 13 -12 34 -30 46 -38 24 -17 53 -61 90 -136 19 -38
22 -62 23 -156 0 -106 -1 -112 -35 -180 -45 -89 -108 -152 -195 -195 -61 -30
-81 -34 -160 -37 -144 -6 -244 39 -342 152 -72 83 -101 239 -68 364 36 137
119 229 249 279 83 31 222 28 310 -7z m897 10 c68 -22 93 -40 116 -83 17 -34
10 -62 -25 -99 -31 -34 -65 -36 -133 -7 -37 17 -63 20 -112 17 -56 -3 -70 -9
-114 -43 -83 -66 -109 -162 -69 -255 36 -83 95 -126 186 -137 38 -4 58 -1 90
16 94 49 185 15 185 -69 0 -33 -6 -45 -35 -69 -62 -53 -136 -74 -243 -69 -79
3 -103 8 -152 33 -120 61 -205 167 -235 294 -32 135 29 307 139 397 110 90
264 118 402 74z m681 0 c191 -59 260 -299 125 -440 -23 -25 -51 -50 -62 -56
-19 -11 -19 -13 16 -65 54 -80 72 -126 65 -162 -15 -76 -95 -102 -155 -51 -17
14 -31 29 -31 33 0 5 -24 48 -54 97 l-53 89 -61 3 -60 3 -4 -105 c-4 -127 -15
-146 -88 -146 -35 0 -52 5 -66 21 -18 20 -19 43 -22 363 -2 187 0 356 3 373
10 54 37 62 221 63 134 0 173 -3 226 -20z m1564 -8 c55 -25 115 -88 140 -147
18 -44 18 -175 0 -218 -22 -51 -79 -110 -137 -141 -47 -26 -64 -29 -171 -34
l-118 -5 0 -97 c0 -83 -3 -101 -21 -124 -17 -22 -28 -26 -70 -26 -40 0 -55 5
-74 25 l-25 24 0 351 c0 221 4 358 10 370 24 44 54 50 240 47 156 -2 180 -5
226 -25z m1528 -1 c64 -28 125 -88 161 -158 l30 -58 3 -264 c3 -261 3 -264
-19 -287 -18 -19 -33 -24 -74 -24 -75 0 -88 18 -95 128 l-5 87 -154 0 -153 0
-2 -80 c-2 -112 -17 -135 -91 -135 -42 0 -60 5 -75 20 -20 20 -21 30 -18 288
3 262 3 268 28 317 36 72 114 147 180 172 74 29 211 26 284 -6z m-7842 -1258
c26 -25 28 -31 28 -114 0 -63 -4 -88 -13 -92 -20 -8 -35 5 -38 33 -3 21 -10
26 -41 28 -36 3 -38 2 -38 -26 0 -33 -24 -49 -46 -31 -10 8 -14 36 -14 91 0
75 2 81 29 109 40 39 93 40 133 2z m552 5 c13 -19 14 -25 3 -36 -11 -10 -20
-10 -42 -2 -35 13 -67 0 -83 -35 -8 -17 -6 -29 9 -55 19 -31 21 -32 68 -25 56
8 73 -5 45 -36 -19 -21 -101 -27 -135 -9 -28 15 -49 63 -49 111 0 33 6 47 34
75 30 30 40 34 84 34 41 0 54 -4 66 -22z m210 6 c3 -9 6 -29 6 -45 0 -26 4
-29 30 -29 26 0 30 3 30 29 0 42 9 61 30 61 25 0 30 -19 30 -115 0 -96 -5
-115 -30 -115 -21 0 -30 19 -30 61 0 25 -4 29 -29 29 -28 0 -30 -3 -33 -42 -3
-39 -6 -43 -30 -46 l-28 -3 0 109 c0 60 3 112 7 115 12 13 41 7 47 -9z m409 3
c26 -18 33 -81 13 -112 -12 -19 -14 -30 -6 -44 33 -62 -14 -85 -52 -26 -29 44
-46 44 -50 3 -2 -25 -8 -34 -25 -36 -23 -3 -23 -2 -23 106 0 60 3 112 7 115
11 12 119 7 136 -6z m353 -9 c39 -27 54 -56 54 -105 0 -28 -8 -42 -37 -69 -30
-28 -45 -34 -80 -34 -54 0 -101 23 -113 56 -13 34 -13 87 1 117 26 57 117 75
175 35z m343 -4 c30 -25 31 -28 31 -116 l0 -89 -27 3 c-27 3 -28 5 -33 78 -7
102 -20 120 -60 80 -16 -16 -20 -33 -20 -89 0 -49 -4 -70 -14 -74 -26 -10 -36
17 -36 94 0 69 3 81 26 108 34 41 88 43 133 5z m216 -89 c0 -105 -1 -110 -21
-113 -20 -3 -22 2 -26 95 -5 103 2 136 30 131 15 -3 17 -18 17 -113z m326 97
c29 -24 20 -57 -14 -48 -12 3 -31 9 -43 12 -45 12 -78 -58 -49 -102 14 -22 22
-25 48 -20 70 13 72 12 72 -14 0 -20 -7 -27 -37 -37 -42 -14 -90 -4 -127 28
-28 23 -41 103 -21 138 29 55 126 79 171 43z m213 2 c3 -9 6 -49 6 -89 l0 -74
43 -3 c35 -2 43 -7 45 -25 3 -22 0 -23 -67 -23 -86 0 -91 6 -91 119 0 95 5
111 35 111 13 0 26 -7 29 -16z m391 -9 c0 -17 -8 -20 -47 -23 -39 -3 -48 -7
-48 -22 0 -15 9 -19 43 -22 34 -2 42 -7 42 -23 0 -16 -8 -21 -42 -23 -34 -3
-43 -7 -43 -22 0 -15 9 -19 48 -22 40 -3 47 -6 50 -25 3 -22 0 -23 -71 -23
-89 0 -87 -2 -87 115 0 118 -1 116 84 113 63 -3 71 -5 71 -23z m389 17 c3 -5
8 -46 12 -91 9 -107 27 -102 34 10 5 82 6 84 30 84 25 0 25 -2 28 -87 2 -69 6
-88 17 -88 18 0 24 25 27 110 3 57 5 65 23 65 18 0 20 -8 23 -91 2 -77 0 -94
-16 -114 -18 -22 -26 -24 -103 -21 -106 3 -121 14 -127 100 -6 84 4 131 28
131 10 0 21 -4 24 -8z m386 -108 c0 -114 0 -115 -22 -112 -22 3 -23 8 -26 102
-3 114 0 126 28 126 19 0 20 -6 20 -116z m315 91 c0 -14 -8 -21 -27 -23 l-28
-3 0 -83 c0 -87 -11 -113 -44 -100 -13 5 -16 22 -16 95 0 88 0 89 -24 89 -28
0 -40 14 -32 36 5 12 22 14 88 12 75 -3 83 -5 83 -23z m193 -23 c3 -43 3 -43
40 -40 36 3 37 4 40 46 3 38 6 43 25 40 21 -3 22 -7 22 -113 0 -106 -1 -110
-22 -113 -16 -2 -23 2 -24 15 -1 10 -3 25 -4 33 -1 8 -3 21 -4 28 0 7 -15 12
-36 12 -35 0 -35 0 -35 -46 0 -44 -1 -45 -27 -42 l-28 3 -3 99 c-3 116 0 129
30 124 19 -2 24 -10 26 -46z m469 15 c19 -18 27 -39 31 -76 4 -47 2 -53 -31
-86 -30 -30 -41 -35 -84 -35 -70 0 -113 37 -120 103 -5 44 -4 49 36 88 40 40
43 41 92 37 37 -4 58 -12 76 -31z m233 -51 c4 -59 9 -82 22 -89 31 -20 48 8
48 82 0 74 9 95 36 89 16 -3 19 -14 22 -80 3 -95 -12 -131 -63 -148 -30 -10
-41 -9 -73 7 l-37 18 -3 103 c-3 103 -3 103 20 100 21 -3 23 -9 28 -82z m435
59 c0 -14 -8 -21 -27 -23 l-28 -3 0 -90 c0 -88 -1 -90 -22 -87 -22 3 -23 8
-26 91 -3 84 -3 87 -27 87 -27 0 -39 14 -31 36 5 12 22 14 83 12 70 -3 78 -5
78 -23z m505 -2 c25 -24 31 -38 36 -90 9 -83 1 -113 -31 -113 -20 0 -27 6 -31
30 -6 26 -11 30 -40 30 -26 0 -34 -4 -34 -18 0 -10 -6 -27 -14 -37 -12 -16
-16 -17 -30 -6 -12 10 -16 32 -16 93 0 75 2 81 29 109 39 39 89 40 131 2z
m325 3 c28 -28 37 -70 33 -145 -2 -38 -8 -57 -20 -65 -29 -18 -42 7 -43 89 -2
81 -11 101 -43 91 -27 -9 -45 -66 -37 -114 4 -24 1 -43 -8 -56 -12 -17 -14
-17 -30 -1 -24 23 -24 141 0 175 27 39 45 49 86 50 27 0 45 -7 62 -24z m526
-2 c22 -23 24 -34 24 -112 0 -82 -1 -87 -22 -90 -17 -3 -22 2 -25 25 -3 24 -8
28 -40 31 -34 3 -38 1 -38 -21 0 -30 -21 -50 -44 -41 -13 5 -16 22 -16 91 0
80 2 86 29 114 40 39 97 41 132 3z m224 4 c3 -13 6 -52 7 -88 3 -54 6 -65 22
-68 30 -6 41 15 46 96 5 70 7 77 28 80 21 3 22 1 22 -87 0 -80 -3 -93 -24
-118 -20 -23 -32 -28 -66 -27 -65 2 -93 36 -98 118 -6 89 2 116 33 116 17 0
26 -7 30 -22z m443 -1 c3 -12 -5 -19 -27 -23 l-30 -6 -3 -87 c-3 -80 -5 -86
-25 -89 -28 -4 -35 19 -31 108 3 63 2 65 -22 68 -32 5 -44 17 -36 37 9 24 169
18 174 -8z m194 -19 c3 -42 4 -43 38 -43 29 0 35 3 33 20 -5 42 7 66 30 63 21
-3 22 -7 22 -113 0 -106 -1 -110 -22 -113 -19 -3 -22 2 -25 40 -3 42 -4 43
-38 43 -32 0 -35 -3 -36 -30 -1 -16 -2 -36 -3 -42 -2 -19 -48 -16 -55 3 -8 21
-8 199 1 207 3 4 17 7 29 7 20 0 23 -6 26 -42z m448 25 c41 -28 49 -45 50 -99
0 -53 -9 -70 -50 -98 -55 -36 -159 -7 -181 52 -29 74 33 162 114 162 24 0 53
-7 67 -17z m345 -8 c29 -28 32 -70 8 -104 -13 -19 -14 -28 -5 -42 21 -33 15
-59 -14 -59 -19 0 -28 8 -40 35 -17 41 -44 47 -44 11 0 -27 -28 -62 -40 -49
-11 12 -18 185 -9 211 7 19 15 22 64 22 46 0 60 -4 80 -25z"/>
<path d="M6280 7566 c-69 -24 -155 -57 -192 -75 -37 -17 -72 -31 -78 -31 -6 0
-50 -19 -98 -41 -192 -91 -248 -117 -272 -124 -14 -4 -45 -21 -69 -38 -40 -27
-43 -32 -27 -41 10 -6 30 -20 45 -32 75 -61 371 -175 556 -214 50 -11 128 -29
175 -40 47 -11 101 -20 121 -20 l36 0 8 198 c5 108 9 265 9 347 l1 150 -45 2
c-32 2 -81 -10 -170 -41z"/>
<path d="M7233 7158 c-36 -26 -89 -122 -99 -182 l-7 -39 63 34 c74 39 101 81
103 156 2 57 -13 64 -60 31z"/>
<path d="M5138 6728 c-57 -198 -163 -714 -173 -840 -9 -103 -3 -118 43 -118
79 1 211 32 532 125 47 14 90 25 97 25 6 0 14 4 17 9 16 25 -175 449 -258 574
-20 30 -36 57 -36 62 0 21 -176 215 -196 215 -6 0 -18 -24 -26 -52z"/>
<path d="M5651 6752 c0 -4 13 -27 29 -52 44 -68 146 -273 165 -330 9 -27 19
-50 23 -50 3 0 20 16 38 36 28 30 31 39 22 54 -7 10 -23 24 -35 31 -13 7 -26
24 -30 37 -5 20 5 35 58 88 50 51 70 64 94 64 61 0 62 -14 7 -76 l-51 -57 21
-29 c11 -16 29 -35 39 -41 33 -20 21 -48 -51 -119 -38 -38 -70 -73 -70 -78 0
-21 23 -116 30 -125 4 -5 16 -38 25 -72 l18 -63 41 46 c22 26 46 63 52 83 14
47 52 68 91 49 57 -27 57 -105 1 -126 -19 -6 -53 -31 -76 -55 l-43 -44 45 -24
45 -23 65 68 66 69 0 163 0 164 -32 29 c-28 25 -33 36 -33 75 0 36 6 51 29 75
57 59 157 32 172 -45 8 -42 -10 -110 -31 -118 -13 -4 -15 -36 -15 -191 l0
-186 -70 -72 c-38 -39 -70 -75 -70 -80 0 -12 31 -57 40 -57 5 0 21 14 37 31
15 17 79 83 140 147 73 76 116 129 122 151 14 46 39 71 73 71 39 0 68 -32 68
-74 0 -38 -21 -66 -50 -66 -10 0 -51 -35 -91 -77 -41 -43 -114 -119 -163 -170
-85 -88 -88 -93 -82 -127 4 -19 3 -37 -2 -40 -12 -7 -83 15 -104 32 -20 17
-24 48 -7 54 6 2 -2 18 -19 36 -28 30 -30 31 -46 13 -16 -18 -14 -21 34 -72
29 -30 59 -70 69 -89 21 -46 44 -49 68 -8 11 18 69 85 129 148 60 64 148 157
195 208 99 107 113 111 168 52 l36 -39 89 95 89 95 -21 72 c-12 40 -24 89 -28
110 -5 29 -13 41 -33 48 -43 16 -124 61 -156 87 -16 13 -45 46 -63 73 -24 35
-40 49 -57 49 -36 0 -21 -32 44 -98 43 -42 74 -63 122 -81 64 -24 93 -46 83
-62 -14 -24 -148 4 -210 44 -54 34 -121 109 -140 157 -19 47 -19 47 -166 54
-59 3 -160 17 -225 31 -65 14 -143 30 -174 34 -30 5 -93 21 -140 36 -165 54
-199 63 -198 57z"/>
<path d="M6870 6590 c0 -11 48 -25 56 -17 4 3 3 10 -1 16 -8 14 -55 14 -55 1z"/>
<path d="M6280 6475 c-30 -32 -18 -58 28 -63 27 -3 32 1 38 23 4 18 1 32 -11
45 -23 26 -27 25 -55 -5z"/>
<path d="M7810 6475 c-30 -7 -100 -22 -155 -34 -102 -21 -368 -83 -373 -87 -2
-1 15 -49 38 -108 22 -58 40 -111 40 -116 0 -5 18 -48 40 -95 22 -47 40 -90
40 -96 0 -14 105 -208 135 -248 14 -19 25 -38 25 -43 0 -14 137 -168 150 -168
7 0 90 259 90 281 0 8 17 75 39 149 68 233 120 502 107 554 -6 24 -10 26 -64
25 -31 -1 -82 -7 -112 -14z"/>
<path d="M6946 5945 c-48 -52 -95 -95 -104 -95 -9 0 -35 19 -59 42 l-42 41
-48 -54 c-26 -30 -82 -90 -124 -134 -41 -44 -99 -106 -129 -137 l-53 -58 65 0
64 0 77 81 c50 53 77 89 77 104 0 35 26 55 70 55 45 0 60 -18 60 -74 0 -36
-27 -66 -60 -66 -8 0 -37 -25 -63 -55 -54 -62 -60 -54 58 -76 33 -6 76 -15 95
-19 19 -4 78 -17 130 -28 52 -11 131 -34 175 -51 44 -17 85 -31 92 -31 6 0 45
-17 86 -38 108 -56 114 -58 81 -18 -68 82 -131 185 -208 343 l-54 112 -46 -46
c-34 -33 -46 -53 -46 -75 0 -64 -45 -108 -111 -108 -43 0 -99 56 -99 99 0 74
58 126 128 115 37 -6 40 -4 87 51 l49 58 -23 66 c-13 36 -27 72 -30 79 -5 8
-36 -19 -95 -83z"/>
<path d="M6009 5813 c9 -33 32 -40 56 -17 16 16 16 18 -7 30 -40 23 -57 18
-49 -13z"/>
<path d="M6895 5691 c-3 -12 -3 -30 0 -42 5 -16 14 -19 38 -17 29 3 32 6 32
38 0 32 -3 35 -32 38 -24 2 -33 -1 -38 -17z"/>
<path d="M6040 5565 c0 -8 4 -15 10 -15 5 0 7 7 4 15 -4 8 -8 15 -10 15 -2 0
-4 -7 -4 -15z"/>
<path d="M5699 5248 c-68 -23 -122 -73 -143 -134 l-15 -44 37 0 c45 0 91 24
125 66 27 32 61 107 55 122 -1 5 -28 0 -59 -10z"/>
<path d="M6320 4908 c0 -183 3 -343 6 -355 9 -33 46 -30 162 13 130 47 219 87
467 212 116 58 231 116 256 128 63 32 74 46 51 67 -29 26 -168 97 -220 112
-26 8 -85 27 -132 44 -47 17 -95 30 -107 31 -13 0 -55 9 -95 20 -81 22 -217
45 -320 55 l-68 7 0 -334z"/>
<path d="M2710 3190 l0 -220 45 0 c24 0 74 10 110 22 54 17 73 30 105 68 64
77 77 139 41 208 -45 87 -136 141 -238 142 l-63 0 0 -220z"/>
<path d="M4300 3320 l0 -90 98 0 c103 0 126 9 151 57 18 35 13 53 -23 89 -34
34 -34 34 -130 34 l-96 0 0 -90z"/>
<path d="M5165 3394 c-44 -24 -84 -64 -106 -106 -25 -49 -26 -152 -1 -189 37
-56 69 -86 116 -108 96 -47 223 -4 274 93 54 103 34 207 -56 282 -44 37 -51
39 -122 42 -54 2 -83 -2 -105 -14z"/>
<path d="M6730 3320 l0 -90 105 0 c100 0 106 1 134 28 46 42 48 70 7 115 l-35
37 -105 0 -106 0 0 -90z"/>
<path d="M8282 3323 l3 -88 90 -3 c103 -3 127 5 150 54 17 37 12 58 -28 102
-19 20 -30 22 -119 22 l-99 0 3 -87z"/>
<path d="M9869 3395 c-43 -24 -77 -84 -79 -140 -1 -27 -1 -56 -1 -62 1 -10 39
-13 157 -13 l157 0 -5 63 c-6 77 -27 118 -71 146 -40 25 -118 28 -158 6z"/>
<path d="M2173 2282 c-7 -4 -14 -19 -15 -32 -3 -21 2 -26 26 -28 41 -5 53 11
32 42 -18 28 -24 30 -43 18z"/>
<path d="M3337 2284 c-10 -11 -9 -42 3 -49 20 -12 51 6 48 28 -3 22 -36 35
-51 21z"/>
<path d="M3676 2274 c-33 -32 -36 -49 -16 -82 21 -33 46 -40 81 -22 28 16 27
84 -3 104 -28 20 -43 20 -62 0z"/>
<path d="M6896 2271 c-12 -13 -16 -31 -14 -57 2 -32 8 -40 31 -48 35 -12 58 0
72 38 21 59 -48 112 -89 67z"/>
<path d="M8108 2279 c-10 -5 -18 -21 -18 -34 0 -22 5 -25 35 -25 32 0 35 3 35
29 0 17 -6 31 -16 35 -19 7 -15 8 -36 -5z"/>
<path d="M8951 2271 c-20 -37 -14 -51 23 -51 42 0 49 8 33 40 -16 32 -43 37
-56 11z"/>
<path d="M10248 2273 c-33 -37 -23 -99 19 -109 32 -9 55 5 68 40 20 58 -48
112 -87 69z"/>
<path d="M10600 2260 c0 -23 5 -30 19 -30 10 0 24 7 31 15 16 19 -3 45 -31 45
-14 0 -19 -7 -19 -30z"/>
</g>
</svg>
