<svg width="400" height="400" viewBox="0 0 400 400" fill="none" xmlns="http://www.w3.org/2000/svg">
  <defs>
    <filter id="goldGlow" x="-50%" y="-50%" width="200%" height="200%">
      <feGaussianBlur in="SourceGraphic" stdDeviation="8" result="blur"/>
      <feOffset in="blur" dx="0" dy="0" result="offsetBlur"/>
      <feFlood flood-color="#f4d58d" flood-opacity="0.8" result="color"/>
      <feComposite in="color" in2="offsetBlur" operator="in" result="glow"/>
      <feMerge>
        <feMergeNode in="glow"/>
        <feMergeNode in="SourceGraphic"/>
      </feMerge>
    </filter>
    
    <filter id="rainbowGlow" x="-50%" y="-50%" width="200%" height="200%">
      <feGaussianBlur in="SourceGraphic" stdDeviation="4" result="blur"> 
        <animate 
          attributeName="stdDeviation" 
          values="2;6;4;2" 
          dur="2s" 
          repeatCount="indefinite"/>
      </feGaussianBlur>
      <feOffset in="blur" dx="0" dy="0" result="offsetBlur"/>
      <feFlood flood-color="#ffffff" flood-opacity="0.5" result="color"/> 
      <feComposite in="color" in2="offsetBlur" operator="in" result="glow"/>
      <feMerge>
        <feMergeNode in="glow"/>
        <feMergeNode in="SourceGraphic"/>
      </feMerge>
    </filter>
  </defs>

  <g id="rotatingRainbowSticks" filter="url(#rainbowGlow)"> 
    <animateTransform 
      attributeName="transform"
      type="rotate"
      from="0 200 200"
      to="360 200 200"
      dur="12s"
      repeatCount="indefinite"/>

    <line x1="200" y1="159" x2="200" y2="119" stroke="#ff0000" stroke-width="0.5" stroke-linecap="round"> 
      <animate attributeName="y2" values="119;130;125;119" dur="1s" repeatCount="indefinite"/>
    </line>
    <line x1="200" y1="159" x2="200" y2="124" transform="rotate(1 200 200)" stroke="#ff0000" stroke-width="0.5" stroke-linecap="round">
      <animate attributeName="y2" values="124;118;132;124" dur="1.2s" repeatCount="indefinite" begin="0.1s"/>
    </line>
    <line x1="200" y1="159" x2="200" y2="121" transform="rotate(2 200 200)" stroke="#ff1a00" stroke-width="0.5" stroke-linecap="round">
      <animate attributeName="y2" values="121;135;120;121" dur="1.1s" repeatCount="indefinite" begin="0.2s"/>
    </line>
    <line x1="200" y1="159" x2="200" y2="126" transform="rotate(3 200 200)" stroke="#ff3300" stroke-width="0.5" stroke-linecap="round">
      <animate attributeName="y2" values="126;120;130;126" dur="0.9s" repeatCount="indefinite" begin="0.3s"/>
    </line>
    <line x1="200" y1="159" x2="200" y2="120" transform="rotate(4 200 200)" stroke="#ff4d00" stroke-width="0.5" stroke-linecap="round">
      <animate attributeName="y2" values="120;128;118;120" dur="1.3s" repeatCount="indefinite" begin="0.4s"/>
    </line>
    <line x1="200" y1="159" x2="200" y2="123" transform="rotate(5 200 200)" stroke="#ff6600" stroke-width="0.5" stroke-linecap="round">
      <animate attributeName="y2" values="123;126;133;123" dur="1s" repeatCount="indefinite" begin="0.5s"/>
    </line>
    <line x1="200" y1="159" x2="200" y2="118" transform="rotate(6 200 200)" stroke="#ff7f00" stroke-width="0.5" stroke-linecap="round"> 
      <animate attributeName="y2" values="118;122;128;118" dur="1.2s" repeatCount="indefinite" begin="0.6s"/>
    </line>
    <line x1="200" y1="159" x2="200" y2="125" transform="rotate(7 200 200)" stroke="#ff9900" stroke-width="0.5" stroke-linecap="round">
      <animate attributeName="y2" values="125;135;122;125" dur="1.4s" repeatCount="indefinite" begin="0.7s"/>
    </line>
    <line x1="200" y1="159" x2="200" y2="122" transform="rotate(8 200 200)" stroke="#ffb200" stroke-width="0.5" stroke-linecap="round">
      <animate attributeName="y2" values="122;129;120;122" dur="1.1s" repeatCount="indefinite" begin="0.8s"/>
    </line>
    <line x1="200" y1="159" x2="200" y2="127" transform="rotate(9 200 200)" stroke="#ffcc00" stroke-width="0.5" stroke-linecap="round">
      <animate attributeName="y2" values="127;121;135;127" dur="1.5s" repeatCount="indefinite" begin="0.9s"/>
    </line>
    <line x1="200" y1="159" x2="200" y2="121" transform="rotate(10 200 200)" stroke="#ffe500" stroke-width="0.5" stroke-linecap="round">
      <animate attributeName="y2" values="121;124;118;121" dur="1.2s" repeatCount="indefinite" begin="1.0s"/>
    </line>
    <line x1="200" y1="159" x2="200" y2="126" transform="rotate(11 200 200)" stroke="#ffff00" stroke-width="0.5" stroke-linecap="round"> 
      <animate attributeName="y2" values="126;132;120;126" dur="0.9s" repeatCount="indefinite" begin="1.1s"/>
    </line>
    <line x1="200" y1="159" x2="200" y2="119" transform="rotate(12 200 200)" stroke="#e5ff00" stroke-width="0.5" stroke-linecap="round">
      <animate attributeName="y2" values="119;130;125;119" dur="1.3s" repeatCount="indefinite" begin="1.2s"/>
    </line>
    <line x1="200" y1="159" x2="200" y2="124" transform="rotate(13 200 200)" stroke="#ccff00" stroke-width="0.5" stroke-linecap="round">
      <animate attributeName="y2" values="124;118;132;124" dur="1.0s" repeatCount="indefinite" begin="1.3s"/>
    </line>
    <line x1="200" y1="159" x2="200" y2="121" transform="rotate(14 200 200)" stroke="#b2ff00" stroke-width="0.5" stroke-linecap="round">
      <animate attributeName="y2" values="121;135;120;121" dur="1.4s" repeatCount="indefinite" begin="1.4s"/>
    </line>
    <line x1="200" y1="159" x2="200" y2="126" transform="rotate(15 200 200)" stroke="#99ff00" stroke-width="0.5" stroke-linecap="round">
      <animate attributeName="y2" values="126;120;130;126" dur="1.1s" repeatCount="indefinite" begin="1.5s"/>
    </line>
    <line x1="200" y1="159" x2="200" y2="120" transform="rotate(16 200 200)" stroke="#7fff00" stroke-width="0.5" stroke-linecap="round">
      <animate attributeName="y2" values="120;128;118;120" dur="1.2s" repeatCount="indefinite" begin="1.6s"/>
    </line>
    <line x1="200" y1="159" x2="200" y2="123" transform="rotate(17 200 200)" stroke="#66ff00" stroke-width="0.5" stroke-linecap="round">
      <animate attributeName="y2" values="123;126;133;123" dur="1.3s" repeatCount="indefinite" begin="1.7s"/>
    </line>
    <line x1="200" y1="159" x2="200" y2="118" transform="rotate(18 200 200)" stroke="#4dff00" stroke-width="0.5" stroke-linecap="round">
      <animate attributeName="y2" values="118;122;128;118" dur="1.0s" repeatCount="indefinite" begin="1.8s"/>
    </line>
    <line x1="200" y1="159" x2="200" y2="125" transform="rotate(19 200 200)" stroke="#33ff00" stroke-width="0.5" stroke-linecap="round">
      <animate attributeName="y2" values="125;135;122;125" dur="1.4s" repeatCount="indefinite" begin="1.9s"/>
    </line>
    <line x1="200" y1="159" x2="200" y2="122" transform="rotate(20 200 200)" stroke="#1aff00" stroke-width="0.5" stroke-linecap="round">
      <animate attributeName="y2" values="122;129;120;122" dur="1.1s" repeatCount="indefinite" begin="2.0s"/>
    </line>
    <line x1="200" y1="159" x2="200" y2="127" transform="rotate(21 200 200)" stroke="#00ff00" stroke-width="0.5" stroke-linecap="round"> 
      <animate attributeName="y2" values="127;121;135;127" dur="1.5s" repeatCount="indefinite" begin="2.1s"/>
    </line>
    <line x1="200" y1="159" x2="200" y2="121" transform="rotate(22 200 200)" stroke="#00ff1a" stroke-width="0.5" stroke-linecap="round">
      <animate attributeName="y2" values="121;124;118;121" dur="1.2s" repeatCount="indefinite" begin="2.2s"/>
    </line>
    <line x1="200" y1="159" x2="200" y2="126" transform="rotate(23 200 200)" stroke="#00ff33" stroke-width="0.5" stroke-linecap="round">
      <animate attributeName="y2" values="126;132;120;126" dur="0.9s" repeatCount="indefinite" begin="2.3s"/>
    </line>
    <line x1="200" y1="159" x2="200" y2="119" transform="rotate(24 200 200)" stroke="#00ff4d" stroke-width="0.5" stroke-linecap="round">
      <animate attributeName="y2" values="119;130;125;119" dur="1.3s" repeatCount="indefinite" begin="2.4s"/>
    </line>
    <line x1="200" y1="159" x2="200" y2="124" transform="rotate(25 200 200)" stroke="#00ff66" stroke-width="0.5" stroke-linecap="round">
      <animate attributeName="y2" values="124;118;132;124" dur="1.0s" repeatCount="indefinite" begin="2.5s"/>
    </line>
    <line x1="200" y1="159" x2="200" y2="121" transform="rotate(26 200 200)" stroke="#00ff7f" stroke-width="0.5" stroke-linecap="round">
      <animate attributeName="y2" values="121;135;120;121" dur="1.4s" repeatCount="indefinite" begin="2.6s"/>
    </line>
    <line x1="200" y1="159" x2="200" y2="126" transform="rotate(27 200 200)" stroke="#00ff99" stroke-width="0.5" stroke-linecap="round">
      <animate attributeName="y2" values="126;120;130;126" dur="1.1s" repeatCount="indefinite" begin="2.7s"/>
    </line>
    <line x1="200" y1="159" x2="200" y2="120" transform="rotate(28 200 200)" stroke="#00ffb2" stroke-width="0.5" stroke-linecap="round">
      <animate attributeName="y2" values="120;128;118;120" dur="1.2s" repeatCount="indefinite" begin="2.8s"/>
    </line>
    <line x1="200" y1="159" x2="200" y2="123" transform="rotate(29 200 200)" stroke="#00ffcc" stroke-width="0.5" stroke-linecap="round">
      <animate attributeName="y2" values="123;126;133;123" dur="1.3s" repeatCount="indefinite" begin="2.9s"/>
    </line>
    <line x1="200" y1="159" x2="200" y2="118" transform="rotate(30 200 200)" stroke="#00ffe5" stroke-width="0.5" stroke-linecap="round">
      <animate attributeName="y2" values="118;122;128;118" dur="1.0s" repeatCount="indefinite" begin="3.0s"/>
    </line>
    <line x1="200" y1="159" x2="200" y2="125" transform="rotate(31 200 200)" stroke="#00ffff" stroke-width="0.5" stroke-linecap="round">
      <animate attributeName="y2" values="125;135;122;125" dur="1.4s" repeatCount="indefinite" begin="3.1s"/>
    </line>
    <line x1="200" y1="159" x2="200" y2="122" transform="rotate(32 200 200)" stroke="#00e5ff" stroke-width="0.5" stroke-linecap="round">
      <animate attributeName="y2" values="122;129;120;122" dur="1.1s" repeatCount="indefinite" begin="3.2s"/>
    </line>
    <line x1="200" y1="159" x2="200" y2="127" transform="rotate(33 200 200)" stroke="#00ccff" stroke-width="0.5" stroke-linecap="round">
      <animate attributeName="y2" values="127;121;135;127" dur="1.5s" repeatCount="indefinite" begin="3.3s"/>
    </line>
    <line x1="200" y1="159" x2="200" y2="121" transform="rotate(34 200 200)" stroke="#00b2ff" stroke-width="0.5" stroke-linecap="round">
      <animate attributeName="y2" values="121;124;118;121" dur="1.2s" repeatCount="indefinite" begin="3.4s"/>
    </line>
    <line x1="200" y1="159" x2="200" y2="126" transform="rotate(35 200 200)" stroke="#0099ff" stroke-width="0.5" stroke-linecap="round">
      <animate attributeName="y2" values="126;132;120;126" dur="0.9s" repeatCount="indefinite" begin="3.5s"/>
    </line>
    <line x1="200" y1="159" x2="200" y2="119" transform="rotate(36 200 200)" stroke="#007fff" stroke-width="0.5" stroke-linecap="round">
      <animate attributeName="y2" values="119;130;125;119" dur="1.3s" repeatCount="indefinite" begin="3.6s"/>
    </line>
    <line x1="200" y1="159" x2="200" y2="124" transform="rotate(37 200 200)" stroke="#0066ff" stroke-width="0.5" stroke-linecap="round">
      <animate attributeName="y2" values="124;118;132;124" dur="1.0s" repeatCount="indefinite" begin="3.7s"/>
    </line>
    <line x1="200" y1="159" x2="200" y2="121" transform="rotate(38 200 200)" stroke="#004dff" stroke-width="0.5" stroke-linecap="round">
      <animate attributeName="y2" values="121;135;120;121" dur="1.4s" repeatCount="indefinite" begin="3.8s"/>
    </line>
    <line x1="200" y1="159" x2="200" y2="126" transform="rotate(39 200 200)" stroke="#0033ff" stroke-width="0.5" stroke-linecap="round">
      <animate attributeName="y2" values="126;120;130;126" dur="1.1s" repeatCount="indefinite" begin="3.9s"/>
    </line>
    <line x1="200" y1="159" x2="200" y2="120" transform="rotate(40 200 200)" stroke="#001aff" stroke-width="0.5" stroke-linecap="round">
      <animate attributeName="y2" values="120;128;118;120" dur="1.2s" repeatCount="indefinite" begin="4.0s"/>
    </line>
    <line x1="200" y1="159" x2="200" y2="123" transform="rotate(41 200 200)" stroke="#0000ff" stroke-width="0.5" stroke-linecap="round"> 
      <animate attributeName="y2" values="123;126;133;123" dur="1.3s" repeatCount="indefinite" begin="4.1s"/>
    </line>
    <line x1="200" y1="159" x2="200" y2="118" transform="rotate(42 200 200)" stroke="#1a00ff" stroke-width="0.5" stroke-linecap="round">
      <animate attributeName="y2" values="118;122;128;118" dur="1.0s" repeatCount="indefinite" begin="4.2s"/>
    </line>
    <line x1="200" y1="159" x2="200" y2="125" transform="rotate(43 200 200)" stroke="#3300ff" stroke-width="0.5" stroke-linecap="round">
      <animate attributeName="y2" values="125;135;122;125" dur="1.4s" repeatCount="indefinite" begin="4.3s"/>
    </line>
    <line x1="200" y1="159" x2="200" y2="122" transform="rotate(44 200 200)" stroke="#4b00ff" stroke-width="0.5" stroke-linecap="round">
      <animate attributeName="y2" values="122;129;120;122" dur="1.1s" repeatCount="indefinite" begin="4.4s"/>
    </line> 
    <line x1="200" y1="159" x2="200" y2="127" transform="rotate(45 200 200)" stroke="#6600ff" stroke-width="0.5" stroke-linecap="round">
      <animate attributeName="y2" values="127;121;135;127" dur="1.5s" repeatCount="indefinite" begin="4.5s"/>
    </line>

    <circle cx="200" cy="200" r="40" fill="none" stroke="#f4d58d" stroke-width="2" opacity="1"/> 
  </g>

  <circle cx="200" cy="200" r="50" fill="none" stroke="#f4d58d" stroke-width="2"/> 
  
  <g id="thinGoldSticks240to360">
    <line x1="200" y1="150" x2="200" y2="137.0" transform="rotate(240 200 200)" stroke="#f4d58d" stroke-width="1.5" stroke-linecap="round">
      <animate attributeName="y2" values="137;145;135;137" dur="1.5s" repeatCount="indefinite" begin="0s"/>
    </line>
    <line x1="200" y1="150" x2="200" y2="140.5" transform="rotate(246 200 200)" stroke="#f4d58d" stroke-width="1.5" stroke-linecap="round">
      <animate attributeName="y2" values="140.5;133;142;140.5" dur="1.3s" repeatCount="indefinite" begin="0.1s"/>
    </line>
    <line x1="200" y1="150" x2="200" y2="135.0" transform="rotate(252 200 200)" stroke="#f4d58d" stroke-width="1.5" stroke-linecap="round">
      <animate attributeName="y2" values="135;144;136;135" dur="1.6s" repeatCount="indefinite" begin="0.2s"/>
    </line>
    <line x1="200" y1="150" x2="200" y2="142.5" transform="rotate(258 200 200)" stroke="#f4d58d" stroke-width="1.5" stroke-linecap="round">
      <animate attributeName="y2" values="142.5;138;144;142.5" dur="1.2s" repeatCount="indefinite" begin="0.3s"/>
    </line>
    <line x1="200" y1="150" x2="200" y2="136.0" transform="rotate(264 200 200)" stroke="#f4d58d" stroke-width="1.5" stroke-linecap="round">
      <animate attributeName="y2" values="136;141;134;136" dur="1.4s" repeatCount="indefinite" begin="0.4s"/>
    </line>
    <line x1="200" y1="150" x2="200" y2="139.5" transform="rotate(270 200 200)" stroke="#f4d58d" stroke-width="1.5" stroke-linecap="round">
      <animate attributeName="y2" values="139.5;143;137;139.5" dur="1.5s" repeatCount="indefinite" begin="0.5s"/>
    </line>
    <line x1="200" y1="150" x2="200" y2="134.0" transform="rotate(276 200 200)" stroke="#f4d58d" stroke-width="1.5" stroke-linecap="round">
      <animate attributeName="y2" values="134;142;138;134" dur="1.3s" repeatCount="indefinite" begin="0.6s"/>
    </line>
    <line x1="200" y1="150" x2="200" y2="141.0" transform="rotate(282 200 200)" stroke="#f4d58d" stroke-width="1.5" stroke-linecap="round">
      <animate attributeName="y2" values="141;135;144;141" dur="1.6s" repeatCount="indefinite" begin="0.7s"/>
    </line>
    <line x1="200" y1="150" x2="200" y2="137.5" transform="rotate(288 200 200)" stroke="#f4d58d" stroke-width="1.5" stroke-linecap="round">
      <animate attributeName="y2" values="137.5;145;136;137.5" dur="1.2s" repeatCount="indefinite" begin="0.8s"/>
    </line>
    <line x1="200" y1="150" x2="200" y2="143.0" transform="rotate(294 200 200)" stroke="#f4d58d" stroke-width="1.5" stroke-linecap="round">
      <animate attributeName="y2" values="143;136;140;143" dur="1.4s" repeatCount="indefinite" begin="0.9s"/>
    </line>
    <line x1="200" y1="150" x2="200" y2="133.5" transform="rotate(300 200 200)" stroke="#f4d58d" stroke-width="1.5" stroke-linecap="round">
      <animate attributeName="y2" values="133.5;144;135;133.5" dur="1.5s" repeatCount="indefinite" begin="1.0s"/>
    </line>
    <line x1="200" y1="150" x2="200" y2="140.0" transform="rotate(306 200 200)" stroke="#f4d58d" stroke-width="1.5" stroke-linecap="round">
      <animate attributeName="y2" values="140;138;142;140" dur="1.3s" repeatCount="indefinite" begin="1.1s"/>
    </line>
    <line x1="200" y1="150" x2="200" y2="136.5" transform="rotate(312 200 200)" stroke="#f4d58d" stroke-width="1.5" stroke-linecap="round">
      <animate attributeName="y2" values="136.5;145;137;136.5" dur="1.6s" repeatCount="indefinite" begin="1.2s"/>
    </line>
    <line x1="200" y1="150" x2="200" y2="142.0" transform="rotate(318 200 200)" stroke="#f4d58d" stroke-width="1.5" stroke-linecap="round">
      <animate attributeName="y2" values="142;135;144;142" dur="1.2s" repeatCount="indefinite" begin="1.3s"/>
    </line>
    <line x1="200" y1="150" x2="200" y2="135.5" transform="rotate(324 200 200)" stroke="#f4d58d" stroke-width="1.5" stroke-linecap="round">
      <animate attributeName="y2" values="135.5;141;134;135.5" dur="1.4s" repeatCount="indefinite" begin="1.4s"/>
    </line>
    <line x1="200" y1="150" x2="200" y2="138.5" transform="rotate(330 200 200)" stroke="#f4d58d" stroke-width="1.5" stroke-linecap="round">
      <animate attributeName="y2" values="138.5;143;137;138.5" dur="1.5s" repeatCount="indefinite" begin="1.5s"/>
    </line>
    <line x1="200" y1="150" x2="200" y2="134.5" transform="rotate(336 200 200)" stroke="#f4d58d" stroke-width="1.5" stroke-linecap="round">
      <animate attributeName="y2" values="134.5;142;138;134.5" dur="1.3s" repeatCount="indefinite" begin="1.6s"/>
    </line>
    <line x1="200" y1="150" x2="200" y2="139.0" transform="rotate(342 200 200)" stroke="#f4d58d" stroke-width="1.5" stroke-linecap="round">
      <animate attributeName="y2" values="139;135;144;139" dur="1.6s" repeatCount="indefinite" begin="1.7s"/>
    </line>
    <line x1="200" y1="150" x2="200" y2="137.0" transform="rotate(348 200 200)" stroke="#f4d58d" stroke-width="1.5" stroke-linecap="round">
      <animate attributeName="y2" values="137;145;136;137" dur="1.2s" repeatCount="indefinite" begin="1.8s"/>
    </line>
    <line x1="200" y1="150" x2="200" y2="143.5" transform="rotate(354 200 200)" stroke="#f4d58d" stroke-width="1.5" stroke-linecap="round">
      <animate attributeName="y2" values="143.5;136;140;143.5" dur="1.4s" repeatCount="indefinite" begin="1.9s"/>
    </line>
  </g>

  <g filter="url(#goldGlow)">
    <line x1="200" y1="200" x2="200" y2="80" stroke="#f4d58d" stroke-width="8" stroke-linecap="round" stroke-linejoin="round"/>
    <line x1="200" y1="200" x2="267.8" y2="107.8" stroke="#f4d58d" stroke-width="8" stroke-linecap="round" stroke-linejoin="round"/>
    <line x1="200" y1="200" x2="311.5" y2="156.8" stroke="#f4d58d" stroke-width="8" stroke-linecap="round" stroke-linejoin="round"/>
    <line x1="200" y1="200" x2="318.4" y2="225.4" stroke="#f4d58d" stroke-width="8" stroke-linecap="round" stroke-linejoin="round"/>
    <line x1="200" y1="200" x2="288.0" y2="288.0" stroke="#f4d58d" stroke-width="8" stroke-linecap="round" stroke-linejoin="round"/>
    <line x1="200" y1="200" x2="226.5" y2="318.2" stroke="#f4d58d" stroke-width="8" stroke-linecap="round" stroke-linejoin="round"/>
    <line x1="200" y1="200" x2="147.5" y2="311.0" stroke="#f4d58d" stroke-width="8" stroke-linecap="round" stroke-linejoin="round"/>
    <line x1="200" y1="200" x2="80.0" y2="263.9" stroke="#f4d58d" stroke-width="8" stroke-linecap="round" stroke-linejoin="round"/>
  </g>

  <circle cx="200" cy="200" r="20" fill="none" stroke="#f4d58d" stroke-width="2"/>
</svg>